<?xml version="1.0" encoding="utf-8"?>
<!-- Generator: Adobe Illustrator 16.0.0, SVG Export Plug-In . SVG Version: 6.00 Build 0)  -->
<!DOCTYPE svg PUBLIC "-//W3C//DTD SVG 1.1//EN" "http://www.w3.org/Graphics/SVG/1.1/DTD/svg11.dtd">
<svg version="1.1" id="Layer_1" xmlns="http://www.w3.org/2000/svg" xmlns:xlink="http://www.w3.org/1999/xlink" x="0px" y="0px"
	 width="799.918px" height="800px" viewBox="99.987 0 799.918 800" enable-background="new 99.987 0 799.918 800"
	 xml:space="preserve">
<circle fill="#FFD700" cx="499.946" cy="399.959" r="399.959"/>
<title>Skull And Bones, Bones, Halloween, Horror, Pirate, Skull, Dangerous, coin</title>
<path fill="#B8860B" d="M390.812,468.375c-36.093-0.034-65.342-29.283-65.375-65.375c0-2.25,0.104-4.458,0.312-6.625
	c0.69-6.903,6.847-11.94,13.75-11.25s11.94,6.847,11.25,13.75c-0.069,1.374-0.069,2.751,0,4.125
	c0.085,22.299,18.229,40.306,40.529,40.221c22.298-0.086,40.306-18.23,40.22-40.528c-0.085-22.298-18.23-40.307-40.528-40.221
	c-7.604,0.029-15.048,2.206-21.471,6.279c-5.868,3.659-13.591,1.868-17.25-4s-1.868-13.591,4-17.25
	c30.687-19.025,70.985-9.572,90.011,21.114c19.026,30.686,9.572,70.984-21.113,90.011c-10.33,6.405-22.241,9.803-34.396,9.812
	L390.812,468.375z"/>
<path fill="#B8860B" d="M552.938,468.375c-36.114,0-65.402-29.259-65.438-65.375c-0.001-2.548,0.145-5.094,0.438-7.625
	c0.795-6.903,7.034-11.856,13.938-11.062s11.856,7.034,11.062,13.938l0,0c-2.555,22.151,13.334,42.18,35.484,44.734
	c22.151,2.554,42.18-13.333,44.734-35.484c2.554-22.152-13.333-42.18-35.484-44.734c-1.572-0.181-3.152-0.27-4.734-0.266
	c-7.678-0.031-15.203,2.138-21.688,6.25c-5.763,3.801-13.516,2.211-17.317-3.551c-3.801-5.762-2.212-13.516,3.553-17.317
	c0.066-0.044,0.135-0.088,0.202-0.131c30.377-19.518,70.822-10.715,90.341,19.66c19.518,30.376,10.715,70.822-19.66,90.34
	c-10.532,6.768-22.786,10.368-35.306,10.375L552.938,468.375z"/>
<path fill="#B8860B" d="M450,508.062c-6.903,0-12.5-5.598-12.5-12.5v-21.75c0-6.903,5.597-12.5,12.5-12.5s12.5,5.597,12.5,12.5
	V495.5c0.034,6.903-5.534,12.527-12.438,12.562C450.042,508.062,450.021,508.062,450,508.062z"/>
<path fill="#B8860B" d="M493.75,508.062c-6.903,0-12.5-5.598-12.5-12.5v-21.75c0-6.903,5.597-12.5,12.5-12.5s12.5,5.597,12.5,12.5
	V495.5c0.034,6.903-5.534,12.527-12.438,12.562C493.792,508.062,493.771,508.062,493.75,508.062z"/>
<path fill="#B8860B" d="M879.312,268.75c-0.181-1.057-0.495-2.086-0.938-3.062c-11.752-35.412-28.279-69.055-49.125-100
	c-0.6-1.391-1.446-2.662-2.5-3.75c-21.433-31.198-47.286-59.115-76.75-82.875c-0.924-0.979-2.001-1.802-3.188-2.438
	C684.625,27.186,607.569,0.187,528.125,0h-56.25c-83.612,0.038-164.48,29.837-228.125,84.062
	c-5.298,4.436-5.998,12.327-1.562,17.625s12.327,5.998,17.625,1.562C318.965,52.812,394.138,25.073,471.875,25
	c191.25,0,346.875,168.25,346.875,375S663.125,775,471.875,775S125,606.75,125,400c-0.818-98.207,35.606-193.075,101.938-265.5
	c4.858-4.905,4.82-12.819-0.085-17.678c-4.905-4.857-12.82-4.819-17.678,0.086c-0.189,0.191-0.373,0.389-0.549,0.592
	C137.995,194.542,99.181,295.485,100,400c0,220.562,166.812,400,371.875,400h56.25c129.938,0,248.312-71.062,316.688-190.188
	c3.452-5.989,1.396-13.643-4.594-17.095c-5.988-3.452-13.642-1.396-17.094,4.595c-3.833,6.707-7.854,13.25-12.062,19.625H784
	c14.38-23.877,26.296-49.151,35.562-75.438h29.688c-1.625,4.25-3.188,8.5-4.938,12.5c-2.834,6.295-0.029,13.695,6.266,16.53
	c6.295,2.834,13.695,0.027,16.53-6.268c0.095-0.21,0.184-0.423,0.267-0.639C906.177,469.854,910.407,365.35,879.312,268.75z
	 M843.75,387.5c-0.961-35.231-6.294-70.208-15.875-104.125H858c10.239,33.806,15.955,68.818,17,104.125H843.75z M849.562,258.375
	h-29.625c-9.268-26.286-21.184-51.562-35.562-75.438h26.75c15.441,23.668,28.227,48.967,38.125,75.438H849.562z M700.938,75h-12.5
	C676.184,65.517,663.346,56.812,650,48.938C667.692,56.154,684.734,64.874,700.938,75z M717.5,100h18.75
	c21,17.135,40.015,36.569,56.688,57.938h-25c-14.863-20.907-31.735-40.312-50.375-57.938H717.5z M688.375,725h13.438
	c-16.979,10.638-34.885,19.716-53.5,27.125C662.244,743.968,675.627,734.906,688.375,725z M793.125,642.062
	c-16.515,21.362-35.384,40.799-56.25,57.938h-19.312c18.51-17.644,35.255-37.047,50-57.938H793.125z M827.562,516.625
	c9.687-33.904,15.123-68.88,16.188-104.125H875c-0.975,35.299-6.628,70.312-16.812,104.125H827.562z"/>
<path fill="#B8860B" d="M363.312,229.625c5.375-4.333,6.22-12.202,1.887-17.577c-4.142-5.137-11.562-6.171-16.949-2.361
	c-90.375,68.369-108.214,197.056-39.845,287.431c12.748,16.851,28.021,31.632,45.282,43.819v78.312c0,6.903,5.597,12.5,12.5,12.5
	h211.375c6.902,0,12.5-5.597,12.5-12.5v-78.062c92.7-65.24,114.963-193.276,49.723-285.978
	c-55.198-78.433-157.356-108.183-246.035-71.648c-6.386,2.624-9.436,9.927-6.812,16.312c2.625,6.385,9.928,9.436,16.312,6.812
	c92.004-38.017,197.407,5.748,235.424,97.752c33.072,80.037,4.552,172.282-67.924,219.685c-3.511,2.312-5.624,6.232-5.625,10.438
	v72.188H536.75v-71.562c0-6.902-5.597-12.5-12.5-12.5s-12.5,5.598-12.5,12.5v71.562h-27.375v-71.562c0-6.902-5.597-12.5-12.5-12.5
	s-12.5,5.598-12.5,12.5v71.562h-28.812v-71.562c0-6.902-5.597-12.5-12.5-12.5c-6.902,0-12.5,5.598-12.5,12.5v71.562h-26.875v-72.188
	c0-4.203-2.113-8.125-5.625-10.438c-83.22-54.568-106.445-166.268-51.878-249.487C332.537,257.325,346.788,242.098,363.312,229.625z
	"/>
<path fill="#B8860B" d="M247.625,179c-5.442-4.247-13.297-3.278-17.544,2.165c-0.006,0.008-0.012,0.015-0.018,0.023
	c-48.694,63.78-74.911,141.882-74.562,222.125c0,189.875,141.938,344.375,316.438,344.375c174.5,0,316.438-154.5,316.438-344.375
	c0-189.875-142.064-344.375-316.502-344.375c-77.492,0.455-151.838,30.713-207.625,84.5c-5.522,4.144-6.64,11.979-2.496,17.5
	s11.979,6.64,17.5,2.496c0.732-0.549,1.401-1.177,1.996-1.872c51.202-49.415,119.468-77.213,190.625-77.625
	c160.688,0,291.438,143.312,291.438,319.375c0,176.062-130.75,319.375-291.375,319.375S180.5,579.438,180.5,403.312
	C180.192,328.591,204.63,255.87,250,196.5C254.169,191.01,253.107,183.18,247.625,179z"/>
</svg>
